<?xml version="1.0" standalone="no"?>
<!DOCTYPE svg PUBLIC "-//W3C//DTD SVG 20010904//EN"
 "http://www.w3.org/TR/2001/REC-SVG-20010904/DTD/svg10.dtd">
<svg version="1.0" xmlns="http://www.w3.org/2000/svg"
 width="318.000000pt" height="94.000000pt" viewBox="0 0 318.000000 94.000000"
 preserveAspectRatio="xMidYMid meet">

<g transform="translate(0.000000,94.000000) scale(0.100000,-0.100000)"
fill="#000000" stroke="none">
<path d="M744 639 c-69 -5 -114 -14 -141 -27 -63 -33 -195 -135 -230 -180 -32
-40 -32 -41 -19 -80 14 -37 13 -40 -5 -45 -13 -3 -19 -14 -19 -31 0 -24 3 -26
49 -26 27 0 65 -7 84 -15 46 -19 56 -19 31 0 -16 12 -17 14 -3 15 9 0 20 8 23
17 9 23 -20 44 -59 42 -65 -4 -71 0 -85 40 -11 36 -11 42 9 70 57 79 219 189
300 203 31 5 259 12 506 15 394 4 459 3 520 -11 38 -9 81 -24 95 -33 56 -37
213 -123 217 -119 3 2 -28 23 -69 46 -40 24 -95 56 -121 72 -92 55 -122 58
-572 57 -225 -1 -456 -5 -511 -10z"/>
<path d="M935 611 l-270 -6 -45 -29 c-59 -37 -111 -87 -103 -98 3 -6 18 6 34
25 16 19 54 49 84 66 54 30 57 31 190 31 74 0 135 -1 135 -2 -1 -11 -31 -101
-40 -117 -11 -21 -11 -21 292 -19 167 1 273 3 236 5 l-66 4 -7 59 c-4 32 -4
64 1 71 5 9 46 10 156 6 144 -5 152 -7 221 -40 40 -18 92 -47 117 -63 l45 -29
-115 -6 -115 -5 138 -2 c75 -1 137 0 137 2 0 7 -169 102 -226 128 -46 21 -63
22 -289 23 -132 1 -361 -1 -510 -4z m423 -73 l3 -68 -206 0 c-162 0 -207 3
-211 13 -3 8 3 36 13 63 l19 49 129 5 c72 3 157 5 190 5 l60 0 3 -67z"/>
<path d="M2083 463 c32 -2 81 -2 110 0 29 2 3 3 -58 3 -60 0 -84 -1 -52 -3z"/>
<path d="M2298 453 c12 -2 32 -2 45 0 12 2 2 4 -23 4 -25 0 -35 -2 -22 -4z"/>
<path d="M2398 443 c7 -3 16 -2 19 1 4 3 -2 6 -13 5 -11 0 -14 -3 -6 -6z"/>
<path d="M2558 413 c6 -2 18 -2 25 0 6 3 1 5 -13 5 -14 0 -19 -2 -12 -5z"/>
<path d="M2608 403 c6 -2 18 -2 25 0 6 3 1 5 -13 5 -14 0 -19 -2 -12 -5z"/>
<path d="M561 376 c-19 -22 -26 -107 -10 -117 16 -10 199 -12 223 -3 29 11 16
24 -24 24 -22 0 -40 -4 -40 -10 0 -5 -20 -10 -45 -10 l-45 0 6 43 c3 23 7 52
10 65 4 19 0 22 -30 22 -18 0 -39 -6 -45 -14z"/>
<path d="M716 375 c7 -16 84 -22 84 -6 0 12 -26 21 -61 21 -21 0 -27 -4 -23
-15z"/>
<path d="M865 347 c-14 -93 -16 -92 120 -93 72 0 87 1 38 3 l-82 4 6 64 6 65
-41 0 c-40 0 -41 0 -47 -43z"/>
<path d="M1178 378 c-9 -8 -18 -37 -22 -70 l-6 -58 45 0 c44 0 45 1 45 31 0
29 1 30 43 27 39 -3 42 -5 40 -30 -2 -27 1 -28 41 -28 l43 0 6 57 c7 67 -2 83
-49 83 -32 0 -34 -2 -34 -35 0 -34 -1 -35 -39 -35 -47 0 -55 9 -41 44 9 25 8
26 -23 26 -18 0 -40 -6 -49 -12z"/>
<path d="M1495 378 c-10 -34 -11 -108 -2 -117 7 -7 59 -11 129 -11 l118 0 0
39 c0 21 3 53 6 70 l7 32 -44 -3 c-30 -2 -44 -8 -46 -18 -1 -8 -5 -36 -8 -62
l-6 -48 -41 0 -41 0 7 65 7 65 -41 0 c-24 0 -42 -5 -45 -12z"/>
<path d="M1815 343 c-3 -27 -8 -58 -11 -70 -4 -23 -3 -23 113 -23 65 0 123 4
130 8 6 4 15 31 19 61 8 60 0 71 -53 71 -27 0 -32 -4 -31 -22 1 -13 1 -42 0
-65 l-2 -43 -45 0 c-50 0 -50 -1 -36 83 l8 47 -43 0 -43 0 -6 -47z"/>
<path d="M2157 383 c-3 -5 -9 -37 -13 -71 l-7 -62 41 0 c23 0 43 3 45 8 3 4 7
34 8 67 l4 60 -37 3 c-20 2 -38 -1 -41 -5z"/>
<path d="M2318 378 c-19 -16 -30 -102 -15 -117 16 -16 222 -14 234 2 16 20 24
102 11 115 -7 7 -27 12 -45 12 -32 0 -33 -1 -33 -42 0 -76 -7 -88 -52 -88
l-40 0 7 65 7 65 -29 0 c-16 0 -36 -6 -45 -12z"/>
<path d="M2690 384 c0 -5 7 -18 15 -28 27 -36 19 -46 -40 -46 -52 0 -55 -1
-55 -25 0 -24 3 -25 56 -25 68 0 71 -22 3 -31 l-44 -6 53 -1 c41 -2 52 1 52
13 0 9 7 18 15 21 16 6 21 54 6 54 -5 0 -14 13 -21 30 -12 29 -40 60 -40 44z"/>
<path d="M592 180 c0 -19 2 -27 5 -17 2 9 2 25 0 35 -3 9 -5 1 -5 -18z"/>
<path d="M885 189 c-4 -12 -2 -26 4 -32 8 -8 11 -2 11 21 0 37 -6 41 -15 11z"/>
<path d="M1295 179 c0 -16 3 -29 8 -29 4 0 7 11 7 24 0 14 -3 27 -7 29 -5 3
-8 -8 -8 -24z"/>
<path d="M1830 180 c-12 -16 -16 -30 -10 -30 6 0 16 11 22 25 13 30 28 32 35
6 3 -11 12 -22 20 -25 16 -6 10 7 -15 37 -21 23 -27 22 -52 -13z"/>
<path d="M710 181 c0 -11 4 -22 9 -25 4 -3 6 6 3 19 -5 30 -12 33 -12 6z"/>
<path d="M798 177 c-3 -19 -2 -25 4 -19 6 6 8 18 6 28 -3 14 -5 12 -10 -9z"/>
<path d="M967 185 c-4 -8 -3 -16 1 -19 4 -3 9 4 9 15 2 23 -3 25 -10 4z"/>
<path d="M1050 176 c0 -14 4 -26 8 -26 11 0 12 39 1 45 -5 4 -9 -5 -9 -19z"/>
<path d="M1132 175 c0 -16 2 -22 5 -12 2 9 2 23 0 30 -3 6 -5 -1 -5 -18z"/>
<path d="M1213 184 c-3 -8 -1 -20 6 -27 8 -8 11 -4 11 16 0 30 -7 35 -17 11z"/>
<path d="M2130 176 c0 -22 3 -27 11 -19 8 8 8 16 0 30 -9 16 -10 14 -11 -11z"/>
<path d="M2210 190 c0 -5 5 -10 10 -10 6 0 10 5 10 10 0 6 -4 10 -10 10 -5 0
-10 -4 -10 -10z"/>
<path d="M2290 181 c0 -11 5 -23 10 -26 6 -4 10 5 10 19 0 14 -4 26 -10 26 -5
0 -10 -9 -10 -19z"/>
<path d="M2377 187 c-3 -8 -1 -20 4 -28 6 -10 9 -7 9 14 0 29 -5 35 -13 14z"/>
<path d="M2540 176 c0 -22 3 -27 11 -19 8 8 8 16 0 30 -9 16 -10 14 -11 -11z"/>
<path d="M1520 170 c0 -11 4 -20 8 -20 4 0 8 9 9 20 1 11 -2 20 -8 20 -5 0 -9
-9 -9 -20z"/>
<path d="M2050 159 c0 -5 5 -7 10 -4 6 3 10 8 10 11 0 2 -4 4 -10 4 -5 0 -10
-5 -10 -11z"/>
</g>
</svg>
